<svg width="21" height="20" viewBox="0 0 21 20" fill="none" xmlns="http://www.w3.org/2000/svg">
<path d="M18.5349 3.34542C18.0707 2.86826 17.5195 2.48975 16.9128 2.2315C16.3061 1.97325 15.6558 1.84033 14.9991 1.84033C14.3424 1.84033 13.6921 1.97325 13.0854 2.2315C12.4787 2.48975 11.9275 2.86826 11.4633 3.34542L10.4998 4.33522L9.53626 3.34542C8.5985 2.38205 7.32662 1.84083 6.00043 1.84083C4.67423 1.84083 3.40235 2.38205 2.46459 3.34542C1.52683 4.30879 1 5.6154 1 6.97781C1 8.34022 1.52683 9.64683 2.46459 10.6102L3.42808 11.6L10.4998 18.8648L17.5714 11.6L18.5349 10.6102C18.9994 10.1333 19.3678 9.567 19.6192 8.94374C19.8706 8.32048 20 7.65245 20 6.97781C20 6.30317 19.8706 5.63514 19.6192 5.01188C19.3678 4.38862 18.9994 3.82235 18.5349 3.34542V3.34542Z" fill="white" stroke="white" stroke-width="2" stroke-linecap="round" stroke-linejoin="round"/>
</svg>
